<svg xmlns="http://www.w3.org/2000/svg" viewBox="0 0 1077 323"><style type="text/css">.st0{opacity:0.62;fill:#1BA5F8;enable-background:new ;} .st1{fill:#011627;} .st2{fill:#1BA5F8;}</style><path class="st0" d="M65.7 255.4l40.8-50.2c4.3-5.2 12.3-5.2 16.5 0l40.8 50.2c3.2 3.9 3.2 9.5 0 13.4l-40.8 50.3c-4.3 5.2-12.3 5.2-16.5 0l-40.8-50.2c-3.2-4-3.2-9.5 0-13.5z"></path><path class="st1" d="M353.2 153.2c-8.2-1.5-13.4-2.7-15.5-3.4-2-.8-2.9-2.2-2.9-4.2 0-2.1.7-3.6 2.2-4.5 1.5-.9 4.8-1.4 9.9-1.4 5.1 0 14.1.8 26.9 2.5l.3-17.1-5.1-.9c-10.5-2-18.8-2.9-24.9-2.9-8.8 0-15.9 2.1-21.5 6.3-5.6 4.1-8.3 10.3-8.3 18.5 0 8.1 2 13.8 5.9 17s9.8 5.5 17.8 6.8c8 1.3 13 2.5 14.8 3.4 2 .9 2.9 2.4 2.9 4.3 0 2-.9 3.4-2.8 4.5-1.8.9-5.1 1.4-10.2 1.4-4.9 0-13.8-.8-26.6-2.5l-.6 17.3 4.9.9c9.7 1.9 17.9 2.8 24.7 2.8 20.7 0 31.1-8.3 31.1-25 0-7.6-1.8-13.1-5.3-16.5-3.4-3.5-9.4-5.9-17.7-7.3zM423 153.2c-8.2-1.5-13.4-2.7-15.5-3.4-2-.8-2.9-2.2-2.9-4.2 0-2.1.7-3.6 2.2-4.5 1.5-.9 4.8-1.4 9.9-1.4 5.1 0 14.1.8 26.9 2.5l.3-17.1-5.1-.9c-10.5-2-18.8-2.9-24.9-2.9-8.8 0-15.9 2.1-21.5 6.3-5.6 4.1-8.3 10.3-8.3 18.5 0 8.1 2 13.8 5.9 17s9.8 5.5 17.8 6.8c8 1.3 13 2.5 14.8 3.4 2 .9 2.9 2.4 2.9 4.3 0 2-.9 3.4-2.8 4.5-1.8.9-5.2 1.4-10.2 1.4-4.9 0-13.8-.8-26.6-2.5l-.6 17.3 4.9.9c9.7 1.9 17.9 2.8 24.7 2.8 20.7 0 31.1-8.3 31.1-25 0-7.6-1.8-13.1-5.3-16.5s-9.4-5.9-17.7-7.3zM488.2 182.5h-4.4l-12.3-59.6h-21.7l18.6 77.2h35.2l18.5-77.2h-21zM604.3 121.3c-7.6 0-15.6 2.3-23.9 6.9v-5.4h-11.4v77.2h11.6v-62.7l2.9-1.4c2-.9 4.7-1.9 8.3-2.8 3.7-1 7.2-1.5 10.5-1.5 6.9 0 11.4 2 13.4 6 2.2 3.9 3.2 11.2 3.2 21.9v40.5h11.4v-40.8c0-14.2-1.8-24.1-5.4-29.7-3.4-5.4-10.3-8.2-20.6-8.2zM677.7 121.3c-21.5 0-32.3 13.5-32.3 40.6 0 13.6 2.3 23.6 7 30.1 4.6 6.4 12.5 9.6 23.6 9.6 8.3 0 18.4-.8 30.1-2.5l-.3-9.1-4.5.5c-7.9.6-15.8.9-23.5.9-7.6 0-13-2.1-16.1-6.2-3.1-4.1-4.6-10.5-4.6-19h51l.6-8.8c0-12.5-2.6-21.6-7.7-27.3-5.1-5.8-12.9-8.8-23.3-8.8zm-20.7 35.7c.1-9.1 1.9-15.7 5.3-19.8 3.5-4.1 8.7-6.2 15.5-6.2 6.9 0 11.8 2 14.8 5.9 3.1 3.9 4.6 10.6 4.6 20.1h-40.2zM749.9 191.5c-4.8 0-7.9-1.4-9.3-4.2-1.2-2.8-1.9-8.6-1.9-17.5v-36.9h24.6v-10h-24.6v-23.6h-11.4v23.6h-11v10h11v40.6c0 11 1.5 18.5 4.6 22.4 3.1 3.9 8.7 5.9 16.7 5.9 3.6 0 8.9-.6 15.8-1.7l-.8-9.6-13.7 1zM849.1 190.1h-2.6l-18.4-65.7h-12l-18.4 65.7h-2.5l-15.6-67.2h-11.6l18.4 77.2h19.3l16.4-60.4 16.4 60.4h19.3l18.4-77.2h-11.6zM917.9 121.3c-11.9 0-20.4 3.1-25.5 9.4-5 6.3-7.6 16.5-7.6 30.6 0 14.1 2.4 24.4 7.1 30.7 4.7 6.4 13.4 9.6 26 9.6s21.2-3.2 26-9.6c4.7-6.4 7.1-16.6 7.1-30.7 0-14.1-2.5-24.3-7.6-30.6-5-6.2-13.5-9.4-25.5-9.4zm17.1 63.7c-2.7 4.4-8.4 6.6-17.1 6.6-8.7 0-14.4-2.3-17.2-6.8-2.7-4.5-4-12.4-4-23.6 0-11.3 1.5-19.1 4.5-23.3 3.1-4.3 8.7-6.5 16.7-6.5 8.1 0 13.7 2.2 16.7 6.5 3 4.2 4.5 12 4.5 23.3-.1 11.3-1.4 19.2-4.1 23.8zM978.2 122.9h-11.4v77.2h11.6v-56.7l3.9-2c2.5-1.3 6-2.9 10.7-4.6 4.7-1.8 9.3-3 13.6-3.9v-11.7c-9.9 2-19.3 6-28.3 12.2v-10.5zM1050.7 158.4l25.2-35.5h-13.1l-22.1 31.2-12.1.6v-65.5h-11.6v110.9h11.6v-35.4l12.2-.4 23.1 35.8h13.1z"></path><path class="st2" d="M186.3 82.4c-4.3-5.2-12.3-5.2-16.5 0l-40.8 50.2c-3.2 3.9-3.2 9.5 0 13.4l40.8 50.2c4.3 5.2 12.3 5.2 16.5 0l40.7-50.2c3.2-3.9 3.2-9.5 0-13.4l-40.7-50.2zM59.7 82.4c-4.3-5.2-12.3-5.2-16.5 0l-40.8 50.2c-3.2 3.9-3.2 9.5 0 13.4l40.8 50.2c4.3 5.2 12.3 5.2 16.5 0l40.8-50.2c3.2-3.9 3.2-9.5 0-13.4l-40.8-50.2zM163.7 54.2l-40.7-50.3c-4.3-5.2-12.3-5.2-16.5 0l-40.8 50.3c-3.2 3.9-3.2 9.5 0 13.4l40.8 50.2c4.3 5.2 12.3 5.2 16.5 0l40.8-50.2c3.1-4 3.1-9.5-.1-13.4zM549.3 174.8h-17.7c-1.4 0-2.5 1.1-2.5 2.5v20.3c0 1.4 1.1 2.5 2.5 2.5h17.7c1.4 0 2.5-1.1 2.5-2.5v-20.3c.1-1.4-1.1-2.5-2.5-2.5z"></path></svg>